<svg xmlns="http://www.w3.org/2000/svg" width="16" height="16" viewBox="0 0 16 16">
  <path id="路径_4463" data-name="路径 4463" d="M1.778,3.733A1.956,1.956,0,1,0,3.733,1.778,1.956,1.956,0,0,0,1.778,3.733ZM3.733,0A3.733,3.733,0,1,1,0,3.733,3.733,3.733,0,0,1,3.733,0ZM1.778,12.267a1.956,1.956,0,1,0,1.956-1.956,1.956,1.956,0,0,0-1.956,1.956ZM3.733,8.533A3.733,3.733,0,1,1,0,12.267,3.733,3.733,0,0,1,3.733,8.533ZM9.714,2.667a.889.889,0,1,1,0-1.778h5.4a.889.889,0,1,1,0,1.778h-5.4Zm0,8.889a.889.889,0,0,1,0-1.778h5.4a.889.889,0,0,1,0,1.778h-5.4Zm0-5.333a.889.889,0,0,1,0-1.778h5.4a.889.889,0,0,1,0,1.778h-5.4Zm0,8.889a.889.889,0,0,1,0-1.778h5.4a.889.889,0,1,1,0,1.778h-5.4Z" fill="#fff"/>
</svg>
