<svg xmlns="http://www.w3.org/2000/svg" width="14.994" height="15" viewBox="0 0 14.994 15">
  <path id="下架" d="M174.456,162.4h-13.4a.343.343,0,0,1-.262-.564l1.617-1.916a.346.346,0,0,1,.262-.121h9.757a.348.348,0,0,1,.236.094l2.025,1.916A.343.343,0,0,1,174.456,162.4Zm.5,1.5H160.642a.342.342,0,0,0-.342.342v10.214a.342.342,0,0,0,.342.342h14.309a.342.342,0,0,0,.342-.342V164.243A.342.342,0,0,0,174.951,163.9Zm-4.814,6.183L168,172.22a.345.345,0,0,1-.487,0l-2.136-2.136a.344.344,0,0,1,.242-.587h1.387v-2.631a.345.345,0,0,1,.345-.345h.813a.344.344,0,0,1,.345.345V169.5H169.9A.344.344,0,0,1,170.138,170.084Z" transform="translate(-160.3 -159.8)" fill="#fff"/>
</svg>
