<svg xmlns="http://www.w3.org/2000/svg" width="14.994" height="15" viewBox="0 0 14.994 15">
  <path id="上架" d="M78.1,66.359H64.7a.343.343,0,0,1-.262-.564l1.616-1.916a.347.347,0,0,1,.262-.121h9.757a.349.349,0,0,1,.236.094l2.025,1.916a.344.344,0,0,1-.238.591Zm.5,1.5H64.285a.342.342,0,0,0-.343.342V78.415a.342.342,0,0,0,.343.342H78.594a.342.342,0,0,0,.342-.342V68.2a.345.345,0,0,0-.342-.342Zm-5.058,5.447H72.149v2.631a.345.345,0,0,1-.345.345h-.812a.344.344,0,0,1-.345-.345V73.306H69.26a.344.344,0,0,1-.243-.587l2.138-2.138a.345.345,0,0,1,.487,0l2.136,2.136a.345.345,0,0,1-.243.589Zm0,0" transform="translate(-63.942 -63.758)" fill="#fff"/>
</svg>
