<svg xmlns="http://www.w3.org/2000/svg" xmlns:xlink="http://www.w3.org/1999/xlink" width="14.014" height="14" viewBox="0 0 14.014 14">
  <defs>
    <linearGradient id="linear-gradient" x1="0.5" x2="0.5" y2="1" gradientUnits="objectBoundingBox">
      <stop offset="0" stop-color="#fd7687"/>
      <stop offset="0" stop-color="#66b5ff"/>
      <stop offset="1" stop-color="#1287ff"/>
    </linearGradient>
  </defs>
  <path id="路径_4506" data-name="路径 4506" d="M76.4,73.8h-.884V71.826a1.015,1.015,0,0,0-1.036-.989H70.49V68.8h1.417a.627.627,0,0,0,.625-.625v-3.75a.627.627,0,0,0-.625-.625h-3.75a.627.627,0,0,0-.625.625v3.75a.627.627,0,0,0,.625.625h1.364v2.036H65.56a1.014,1.014,0,0,0-1.036.989V73.8h-.9a.627.627,0,0,0-.625.625v2.75a.627.627,0,0,0,.625.625h2.75A.627.627,0,0,0,67,77.175v-2.75a.627.627,0,0,0-.625-.625h-.884V71.832a.084.084,0,0,1,.067-.027h3.961V73.8h-.88a.627.627,0,0,0-.625.625v2.75a.627.627,0,0,0,.625.625h2.75a.627.627,0,0,0,.625-.625v-2.75a.627.627,0,0,0-.625-.625h-.9V71.806H74.47a.084.084,0,0,1,.067.027V73.8h-.9a.627.627,0,0,0-.625.625v2.75a.627.627,0,0,0,.625.625h2.75a.627.627,0,0,0,.625-.625v-2.75A.618.618,0,0,0,76.4,73.8Z" transform="translate(-63 -63.8)" fill="url(#linear-gradient)"/>
</svg>
